<?xml version="1.0" standalone="no"?>
<!DOCTYPE svg PUBLIC "-//W3C//DTD SVG 20010904//EN"
 "http://www.w3.org/TR/2001/REC-SVG-20010904/DTD/svg10.dtd">
<svg version="1.0" xmlns="http://www.w3.org/2000/svg"
 width="64.000000pt" height="64.000000pt" viewBox="0 0 64.000000 64.000000"
 preserveAspectRatio="xMidYMid meet">

<g transform="translate(0.000000,64.000000) scale(0.100000,-0.100000)"
fill="#000000" stroke="none">
<path d="M217 626 c-58 -21 -114 -62 -148 -109 -50 -69 -62 -105 -63 -192 -1
-67 3 -89 25 -135 91 -192 331 -248 493 -115 54 44 101 119 111 178 10 50 -13
50 -72 -2 -62 -55 -128 -70 -207 -47 -159 46 -214 235 -105 359 61 71 50 92
-34 63z m18 -48 c-85 -100 -81 -240 11 -332 92 -91 232 -96 331 -11 l42 35 -9
-27 c-26 -89 -78 -150 -158 -190 -47 -23 -70 -28 -132 -28 -89 1 -147 25 -209
86 -61 62 -85 120 -86 209 0 94 34 171 101 228 34 29 112 68 142 72 2 0 -13
-19 -33 -42z"/>
</g>
</svg>
