<?xml version="1.0" standalone="no"?>
<!DOCTYPE svg PUBLIC "-//W3C//DTD SVG 20010904//EN"
 "http://www.w3.org/TR/2001/REC-SVG-20010904/DTD/svg10.dtd">
<svg version="1.0" xmlns="http://www.w3.org/2000/svg"
 width="64.000000pt" height="64.000000pt" viewBox="0 0 64.000000 64.000000"
 preserveAspectRatio="xMidYMid meet">

<g transform="translate(0.000000,64.000000) scale(0.100000,-0.100000)"
fill="#000000" stroke="none">
<path d="M273 590 l-38 -49 -74 6 -74 6 7 -74 6 -74 -50 -34 c-27 -19 -50 -40
-50 -47 0 -8 22 -31 50 -51 l49 -38 -6 -74 -6 -74 74 6 74 7 30 -45 c42 -63
53 -64 97 -13 21 24 38 47 38 51 0 4 34 5 77 1 l76 -7 -6 74 -7 74 45 30 c25
16 47 36 50 44 6 16 -27 55 -68 79 -27 16 -27 17 -21 91 l7 74 -74 -7 -74 -6
-34 50 c-19 27 -40 50 -47 50 -8 0 -31 -22 -51 -50z m67 -10 c10 -18 8 -20
-20 -20 -28 0 -30 2 -20 20 6 11 15 20 20 20 5 0 14 -9 20 -20z m83 -82 c161
-89 126 -330 -56 -379 -134 -36 -275 93 -252 230 25 146 178 220 308 149z
m-253 15 c0 -10 -32 -43 -42 -43 -4 0 -8 11 -8 25 0 20 5 25 25 25 14 0 25 -3
25 -7z m350 -18 c0 -29 -7 -31 -32 -8 -25 22 -23 33 7 33 20 0 25 -5 25 -25z
m-442 -191 c-3 -14 -5 -14 -23 0 l-20 16 20 16 c18 14 20 14 23 0 2 -9 2 -23
0 -32z m522 16 c0 -5 -9 -14 -20 -20 -18 -10 -20 -8 -20 20 0 28 2 30 20 20
11 -6 20 -15 20 -20z m-448 -167 c25 -22 23 -33 -7 -33 -20 0 -25 5 -25 25 0
29 7 31 32 8z m368 -8 c0 -20 -5 -25 -25 -25 -29 0 -31 7 -8 32 22 25 33 23
33 -7z m-180 -85 c-14 -25 -26 -25 -40 0 -10 18 -8 20 20 20 28 0 30 -2 20
-20z"/>
<path d="M447 323 c-4 -3 -7 -16 -7 -28 0 -31 -37 -75 -77 -91 -43 -19 -44
-39 0 -30 48 10 97 64 104 114 5 39 -3 53 -20 35z"/>
</g>
</svg>
