<svg id="visual" viewBox="0 0 900 600" width="900" height="600" xmlns="http://www.w3.org/2000/svg" xmlns:xlink="http://www.w3.org/1999/xlink" version="1.1" stroke-width="3.5px" stroke="#c1daf0"><path d="M0 459L30 461.3C60 463.7 120 468.3 180 464.7C240 461 300 449 360 443.5C420 438 480 439 540 444.8C600 450.7 660 461.3 720 461.8C780 462.3 840 452.7 870 447.8L900 443L900 601L870 601C840 601 780 601 720 601C660 601 600 601 540 601C480 601 420 601 360 601C300 601 240 601 180 601C120 601 60 601 30 601L0 601Z" fill="#f68c23"><!--<path d="M0 509L30 512.5C60 516 120 523 180 523.3C240 523.7 300 517.3 360 519.3C420 521.3 480 531.7 540 534C600 536.3 660 530.7 720 529.7C780 528.7 840 532.3 870 534.2L900 536L900 601L870 601C840 601 780 601 720 601C660 601 600 601 540 601C480 601 420 601 360 601C300 601 240 601 180 601C120 601 60 601 30 601L0 601Z" fill="#ff870e00"></path>--></path></svg>