<?xml version="1.0" standalone="no"?>
<!DOCTYPE svg PUBLIC "-//W3C//DTD SVG 20010904//EN"
 "http://www.w3.org/TR/2001/REC-SVG-20010904/DTD/svg10.dtd">
<svg version="1.0" xmlns="http://www.w3.org/2000/svg"
 width="368.000000pt" height="149.000000pt" viewBox="0 0 368.000000 149.000000"
 preserveAspectRatio="xMidYMid meet">

<g transform="translate(0.000000,149.000000) scale(0.100000,-0.100000)"
fill="#000000" stroke="none">
<path d="M56 1438 c-11 -41 -7 -1368 4 -1389 10 -18 25 -19 348 -19 185 0 343
4 350 8 10 7 12 156 10 713 l-3 704 -351 3 -352 2 -6 -22z"/>
<path d="M820 883 l0 -576 58 6 c227 24 423 182 492 397 17 54 23 95 23 168 1
168 -51 293 -167 408 -106 104 -205 149 -363 167 l-43 5 0 -575z"/>
<path d="M1622 738 l3 -723 45 0 45 0 3 723 2 722 -50 0 -50 0 2 -722z"/>
<path d="M2807 1422 c-222 -22 -258 -28 -254 -41 6 -19 567 -1345 572 -1349 5
-5 515 42 525 48 11 7 -560 1362 -575 1365 -5 1 -126 -9 -268 -23z"/>
<path d="M2230 690 c-151 -352 -276 -645 -278 -650 -2 -7 195 -10 558 -10 362
0 560 3 558 10 -14 42 -554 1289 -558 1289 -3 0 -129 -287 -280 -639z"/>
</g>
</svg>
